# xmcd
#
# Track frame offsets: 
#        150
#        10879
#        22791
#        31034
#        39530
#        48636
#        62478
#        72496
#        83922
#        92272
#        104672
#        114878
#        123749
#        135426
#        145661
#        156159
#        166157
#        175386
#        188512
#        198418
#        208703
#        218334
#        229235
#        238377
#
# Disc length: 3336 seconds
#
# Revision: 0
# Processed by: cddbd v1.5.2PL0 Copyright (c) Steve Scherf et al.
# Submitted via: ExactAudioCopy v1.0b3
#
DISCID=400d0618
DTITLE=Various Artist - Early Country Rock From Nashville
DYEAR=2010
DGENRE=Country
TTITLE0=Russell, Bobby - A Woman's Touch
TTITLE1=White, Jack - I Ain't No Beatle
TTITLE2=Pepper, Jay Dee - Movin' Out, Movin' In
TTITLE3=Adams, Bob (Bobby and Bergen) - 99 Ways
TTITLE4=Nashville Country Jamboree - Johnny B. Goode
TTITLE5=Ford, Clayton - What Money Can't Buy
TTITLE6=Elgin, Johnny - Hello City Limits
TTITLE7=Webster, Chase - Strange Places, Strange Faces
TTITLE8=Elgin, Johnny - Fifth Wheel
TTITLE9=Bond, Jack - Tiger In My Tank
TTITLE10=Elgin, Johnny - Lovin' My Way Through Life
TTITLE11=Knight, Carl - The Used Wife Business
TTITLE12=Jake and Josh - Great Big Woman
TTITLE13=Jake and Josh - Nervous Breakdown
TTITLE14=Nashville 7, The - Almost To Nashville
TTITLE15=Bess, Steve - There Was A Time
TTITLE16=Snipes, Gene - Cat In The Corner
TTITLE17=Phillips, Carl - Big Vine Covered House
TTITLE18=Wade, Dallas - Don't Come Crying
TTITLE19=Russell, Bobby - Broken Hearted Fool Like Me
TTITLE20=White, Bergen - Down The Aisle To Heartbreak
TTITLE21=Foster, Jerry - That's All Right Mama
TTITLE22=Kennedy, Hal - Too Tired To Run Anymore
TTITLE23=Reeves, John - When We're Together
EXTD=
EXTT0=
EXTT1=
EXTT2=
EXTT3=
EXTT4=
EXTT5=
EXTT6=
EXTT7=
EXTT8=
EXTT9=
EXTT10=
EXTT11=
EXTT12=
EXTT13=
EXTT14=
EXTT15=
EXTT16=
EXTT17=
EXTT18=
EXTT19=
EXTT20=
EXTT21=
EXTT22=
EXTT23=
PLAYORDER=
